<?xml version="1.0" encoding="UTF-8"?>
<svg width="37px" height="37px" viewBox="0 0 37 37" version="1.1" xmlns="http://www.w3.org/2000/svg" xmlns:xlink="http://www.w3.org/1999/xlink">
    <!-- Generator: Sketch 63.1 (92452) - https://sketch.com -->
    <title>comment</title>
    <desc>Created with Sketch.</desc>
    <g id="Page-1" stroke="none" stroke-width="1" fill="none" fill-rule="evenodd">
        <g id="iPhone-11-Pro-Copy" transform="translate(-164.000000, -738.000000)" fill="#FFFFFF" fill-rule="nonzero">
            <g id="comment" transform="translate(164.000000, 738.000000)">
                <path d="M33.0135346,0 L3.98674776,0 C1.78829195,0 0,1.78829195 0,3.98674776 L0,25.250061 C0,27.4482346 1.78829195,29.2365265 3.98674776,29.2365265 L13.185936,29.2365265 L16.2323837,35.3297043 C16.7630844,36.3911057 17.5896225,37 18.5,37 C19.4103775,37 20.2369156,36.3911057 20.7676163,35.3297043 L23.8143463,29.2365265 L33.0135346,29.2365265 C35.2117081,29.2365265 37,27.4482346 37,25.250061 L37,3.98674776 C37,1.78829195 35.2117081,0 33.0135346,0 L33.0135346,0 Z M34.8320313,25.250061 C34.8320313,26.2527466 34.0162201,27.0685577 33.0135346,27.0685577 L23.1444778,27.0685577 C22.7337494,27.0685577 22.3585892,27.3005981 22.1748199,27.6678543 L18.8285828,34.3600464 C18.6936493,34.6299133 18.5669021,34.7625885 18.5,34.8134003 C18.4330979,34.7625885 18.3063507,34.6299133 18.1714172,34.3600464 L14.8251801,27.6678543 C14.6416931,27.3005981 14.2662506,27.0685577 13.8558044,27.0685577 L3.98674776,27.0685577 C2.98377987,27.0685577 2.16796875,26.2527466 2.16796875,25.250061 L2.16796875,3.98674776 C2.16796875,2.98377987 2.98377987,2.16796875 3.98674776,2.16796875 L33.0135346,2.16796875 C34.0162201,2.16796875 34.8320313,2.98377987 34.8320313,3.98674776 L34.8320313,25.250061 Z" id="Shape"></path>
            </g>
        </g>
    </g>
</svg>