<?xml version="1.0" encoding="UTF-8"?>
<svg width="40px" height="37px" viewBox="0 0 40 37" version="1.1" xmlns="http://www.w3.org/2000/svg" xmlns:xlink="http://www.w3.org/1999/xlink">
    <!-- Generator: Sketch 63.1 (92452) - https://sketch.com -->
    <title>like</title>
    <desc>Created with Sketch.</desc>
    <g id="Page-1" stroke="none" stroke-width="1" fill="none" fill-rule="evenodd">
        <g id="iPhone-11-Pro-Copy" transform="translate(-53.000000, -738.000000)" fill="#FFFFFF" fill-rule="nonzero">
            <g id="like" transform="translate(53.000000, 738.000000)">
                <path d="M28.4765625,0 C25.3543091,0 22.2717285,1.26060729 20.0003052,3.42217177 C17.7285766,1.26060729 14.6459961,0 11.5234375,0 C5.06164547,0 0,5.0638006 0,11.5283439 C0,19.0840498 8.70605469,27.4011882 19.223938,36.7059906 C19.4454956,36.9019968 19.7229004,37 20.0003052,37 C20.27771,37 20.5548095,36.9019968 20.7766723,36.7056852 C31.2939453,27.4005776 40,19.0834392 40,11.5283439 C40,5.0638006 34.9383545,0 28.4765625,0 Z M20.0003052,34.2614077 C10.6033325,25.9158759 2.34375,17.9226669 2.34375,11.5283439 C2.34375,6.37875235 6.37603758,2.34474791 11.5234375,2.34474791 C14.354248,2.34474791 17.2595215,3.70122124 19.1055298,5.88476773 C19.328003,6.14824651 19.6554566,6.29998351 20.0003052,6.29998351 C20.3451538,6.29998351 20.6723023,6.14824651 20.8950805,5.88476773 C22.7407837,3.70122124 25.6460571,2.34474791 28.4765625,2.34474791 C33.6239624,2.34474791 37.65625,6.37875235 37.65625,11.5283439 C37.65625,17.9220563 29.3969727,25.9155706 20.0003052,34.2614077 Z" id="Shape"></path>
            </g>
        </g>
    </g>
</svg>