<?xml version="1.0" encoding="UTF-8"?>
<svg width="150px" height="150px" viewBox="0 0 150 150" version="1.1" xmlns="http://www.w3.org/2000/svg" xmlns:xlink="http://www.w3.org/1999/xlink">
    <!-- Generator: Sketch 64 (93537) - https://sketch.com -->
    <title>Group</title>
    <desc>Created with Sketch.</desc>
    <defs>
        <circle id="path-1" cx="71" cy="71" r="71"></circle>
        <filter x="-4.9%" y="-3.5%" width="109.9%" height="109.9%" filterUnits="objectBoundingBox" id="filter-2">
            <feOffset dx="0" dy="2" in="SourceAlpha" result="shadowOffsetOuter1"></feOffset>
            <feGaussianBlur stdDeviation="2" in="shadowOffsetOuter1" result="shadowBlurOuter1"></feGaussianBlur>
            <feColorMatrix values="0 0 0 0 0   0 0 0 0 0   0 0 0 0 0  0 0 0 0.5 0" type="matrix" in="shadowBlurOuter1"></feColorMatrix>
        </filter>
    </defs>
    <g id="Page-1" stroke="none" stroke-width="1" fill="none" fill-rule="evenodd">
        <g id="Desktop-Copy" transform="translate(-437.000000, -363.000000)">
            <g id="Group" transform="translate(441.000000, 365.000000)">
                <g id="Oval">
                    <use fill="black" fill-opacity="1" filter="url(#filter-2)" xlink:href="#path-1"></use>
                    <use fill="#FFFFFF" fill-rule="evenodd" xlink:href="#path-1"></use>
                </g>
                <path d="M58.112,88.278 C67.908,88.278 75.844,81.334 75.844,70.608 C75.844,59.882 68.156,53 58.422,53 C48.688,53 41,59.882 41,70.608 C41,81.334 48.378,88.278 58.112,88.278 Z M58.112,82.14 C52.78,82.14 48.192,78.358 48.192,70.608 C48.192,62.858 52.966,59.138 58.298,59.138 C63.568,59.138 68.59,62.858 68.59,70.608 C68.59,78.358 63.382,82.14 58.112,82.14 Z M89.918,87.72 L89.918,69.74 C89.918,62.486 93.142,60.316 98.35,60.316 L100.148,60.316 L100.148,53 C95.312,53 91.902,55.108 89.918,58.518 L89.918,53.558 L82.85,53.558 L82.85,87.72 L89.918,87.72 Z" id="or" fill="#292929" fill-rule="nonzero"></path>
            </g>
        </g>
    </g>
</svg>